<svg height="512" width="455" xmlns="http://www.w3.org/2000/svg"><path d="m435.2793884 113.2840881-188.0882721-108.5916052c-10.8347626-6.2566438-28.5671387-6.2566438-39.4019012 0l-188.0882702 108.5916052c-10.8362999 6.2552872-19.7009449 21.6116181-19.7009449 34.1235504v217.1847382c.8429857 14.5713501 8.2855635 26.6393127 19.7009449 34.1234741l188.0882721 108.5915833c10.8347626 6.2567749 28.5671387 6.2567749 39.4019012 0l188.0882721-108.5915833c12.2479248-8.1462708 19.2193298-20.4076233 19.7009277-34.1234741v-217.1847382c-.4399432-13.1647033-8.3237628-26.442749-19.7009296-34.1235504zm-359.4493332 142.7166138c-.8911743-148.0888062 197.459137-213.4790344 282.9962769-75.8776245l-65.6346436 37.9804688c-39.6215057-65.5336304-138.0008087-42.1011963-141.5315704 37.8971558 1.0603333 73.7290649 97.7535858 107.9782104 141.536026 37.8927917l65.6346359 37.9789123c-75.3831176 130.8630676-279.1989822 83.7806397-283.0007248-75.8717041zm303.3202134 8.4245911h-16.8520813v16.8521729h-16.8491821v-16.8521729h-16.8521118v-16.850647h16.8521118v-16.8505554h16.8491821v16.8505554h16.8520813zm63.1917114 0h-16.8520813v16.8521729h-16.8490906v-16.8521729h-16.8522034v-16.850647h16.8522034v-16.8505554h16.8490906v16.8505554h16.8520813z"/></svg>